<?xml version="1.0" standalone="no"?>
<!DOCTYPE svg PUBLIC "-//W3C//DTD SVG 20010904//EN"
 "http://www.w3.org/TR/2001/REC-SVG-20010904/DTD/svg10.dtd">
<svg version="1.0" xmlns="http://www.w3.org/2000/svg"
 width="700.000000pt" height="700.000000pt" viewBox="0 0 700.000000 700.000000"
 preserveAspectRatio="xMidYMid meet">
<metadata>
Created by potrace 1.11, written by Peter Selinger 2001-2013
</metadata>
<g transform="translate(0.000000,700.000000) scale(0.100000,-0.100000)"
fill="#000000" stroke="none">
<path d="M619 6454 c-20 -3 -45 -14 -55 -26 -21 -23 -21 -25 -16 -830 2 -403
3 -419 22 -438 19 -19 33 -20 248 -20 181 0 232 3 248 14 18 14 19 33 24 383
l5 368 2647 3 2646 2 31 31 31 31 0 208 0 208 -31 31 -31 31 -2582 0 c-1421 0
-2711 2 -2867 4 -156 2 -300 2 -320 0z"/>
<path d="M3033 5683 c-36 -7 -72 -51 -78 -96 -3 -23 -5 -1003 -3 -2177 3
-2295 0 -2156 52 -2191 15 -10 67 -15 197 -17 207 -4 251 4 279 51 20 31 20
68 20 2190 0 1939 -2 2161 -16 2188 -26 51 -62 59 -256 58 -95 -1 -183 -4
-195 -6z"/>
<path d="M5975 1741 c-11 -5 -29 -19 -40 -31 -19 -21 -20 -40 -25 -374 l-5
-351 -2647 -3 -2646 -2 -31 -31 -31 -31 0 -199 c0 -218 6 -245 55 -267 20 -9
694 -12 2905 -12 l2878 0 30 30 c16 16 32 44 35 62 3 18 3 285 -1 592 l-5 559
-28 31 -27 31 -199 2 c-109 1 -207 -1 -218 -6z"/>
</g>
</svg>
